<mxfile host="app.diagrams.net" modified="2022-01-21T04:38:39.066Z" agent="5.0 (Windows NT 10.0; Win64; x64) AppleWebKit/537.36 (KHTML, like Gecko) Chrome/97.0.4692.71 Safari/537.36" etag="oA6mCxSvZvvYYzn6rzFC" version="16.3.0" type="github">
  <diagram id="Uef7Ns49TnqU7EKf72Pg" name="Page-1">
    <mxGraphModel dx="483" dy="272" grid="1" gridSize="10" guides="1" tooltips="1" connect="1" arrows="1" fold="1" page="1" pageScale="1" pageWidth="850" pageHeight="1100" math="0" shadow="0">
      <root>
        <mxCell id="0" />
        <mxCell id="1" parent="0" />
        <mxCell id="QX5HGIqqRfi8nTv_evwE-1" value="" style="html=1;verticalLabelPosition=bottom;align=center;labelBackgroundColor=#ffffff;verticalAlign=top;strokeWidth=2;strokeColor=#0080F0;shadow=0;dashed=0;shape=mxgraph.ios7.icons.smartphone;" vertex="1" parent="1">
          <mxGeometry x="90" y="60" width="28" height="50" as="geometry" />
        </mxCell>
        <mxCell id="QX5HGIqqRfi8nTv_evwE-2" value="" style="endArrow=classic;startArrow=classic;html=1;rounded=0;" edge="1" parent="1" target="QX5HGIqqRfi8nTv_evwE-3">
          <mxGeometry width="50" height="50" relative="1" as="geometry">
            <mxPoint x="120" y="80" as="sourcePoint" />
            <mxPoint x="240" y="80" as="targetPoint" />
          </mxGeometry>
        </mxCell>
        <mxCell id="QX5HGIqqRfi8nTv_evwE-3" value="" style="whiteSpace=wrap;html=1;aspect=fixed;" vertex="1" parent="1">
          <mxGeometry x="345" y="40" width="80" height="80" as="geometry" />
        </mxCell>
        <mxCell id="QX5HGIqqRfi8nTv_evwE-4" value="/pools/:matchAddress/:poolTypeId" style="text;html=1;align=center;verticalAlign=middle;resizable=0;points=[];autosize=1;strokeColor=none;fillColor=none;" vertex="1" parent="1">
          <mxGeometry x="130" y="50" width="200" height="20" as="geometry" />
        </mxCell>
      </root>
    </mxGraphModel>
  </diagram>
</mxfile>
